# AST/ASF file generated using VICON BodyLanguage
# -----------------------------------------------
:version 1.10
:name VICON
:units
  mass 1.0
  length 0.45
  angle deg
:documentation
   .ast/.asf automatically generated from VICON data using
   VICON BodyBuilder and BodyLanguage model FoxedUp or BRILLIANT.MOD
:root
   order TX TY TZ RX RY RZ
   axis XYZ
   position 0 0 0  
   orientation 0 0 0 
:bonedata
  begin
     id 1 
     name lhipjoint
     direction 0.643824 -0.71708 0.266994 
     length 2.52133 
     axis 0 0 0  XYZ
  end
  begin
     id 2 
     name lfemur
     direction 0.34202 -0.939693 0  
     length 7.51824  
     axis 0 0 20  XYZ
    dof rx ry rz
    limits (-160.0 20.0)
           (-70.0 70.0)
           (-60.0 70.0)
  end
  begin
     id 3 
     name ltibia
     direction 0.34202 -0.939693 0   
     length 7.3685   
     axis 0 0 20   XYZ
    dof rx
    limits (-10.0 170.0)
  end
  begin
     id 4 
     name lfoot
     direction 0.105419 -0.289636 0.951314   
     length 2.20972   
     axis -90 7.62852e-016 20   XYZ
    dof rx rz
    limits (-45.0 90.0)
           (-70.0 20.0)
  end
  begin
     id 5 
     name ltoes
     direction 1.53549e-011 -4.21833e-011 1   
     length 1.10139   
     axis -90 7.62852e-016 20   XYZ
    dof rx
    limits (-90.0 20.0)
  end
  begin
     id 6 
     name rhipjoint
     direction -0.608823 -0.743445 0.276811   
     length 2.43192  
     axis 0 0 0  XYZ 
  end
  begin
     id 7 
     name rfemur
     direction -0.34202 -0.939693 0   
     length 7.69715   
     axis 0 0 -20   XYZ
    dof rx ry rz
    limits (-160.0 20.0)
           (-70.0 70.0)
           (-70.0 60.0)
  end
  begin
     id 8 
     name rtibia
     direction -0.34202 -0.939693 0   
     length 7.44924   
     axis 0 0 -20   XYZ
    dof rx
    limits (-10.0 170.0)
 end
 begin
     id 9 
     name rfoot
     direction -0.103614 -0.284677 0.953007   
     length 2.22623  
     axis -90 -7.62852e-016 -20   XYZ
    dof rx rz
    limits (-45.0 90.0)
           (-20.0 70.0)
  end
  begin
     id 10 
     name rtoes
     direction -1.53537e-011 -4.22026e-011 1   
     length 1.11   
     axis -90 -7.62852e-016 -20   XYZ
    dof rx
    limits (-90.0 20.0)
  end
  begin
     id 11 
     name lowerback
     direction -0.0101212 0.99662 -0.0815298   
     length 2.08277   
     axis 0 0 0   XYZ
    dof rx ry rz
    limits (-20.0 45.0)
           (-30.0 30.0)
           (-30.0 30.0)
  end
  begin
     id 12 
     name upperback
     direction 0.024314 0.999591 -0.0150645   
     length 2.08524   
     axis 0 0 0   XYZ
    dof rx ry rz
    limits (-20.0 45.0)
           (-30.0 30.0)
           (-30.0 30.0)
  end
  begin
     id 13 
     name thorax
     direction 0.0285959 0.999323 0.0231357   
     length 2.09645   
     axis 0 0 0   XYZ
    dof rx ry rz
    limits (-20.0 45.0)
           (-30.0 30.0)
           (-30.0 30.0)
  end
  begin
     id 14 
     name lowerneck
     direction -0.065512 0.979301 0.191515   
     length 1.63798   
     axis 0 0 0   XYZ
    dof rx ry rz
    limits (-20.0 45.0)
           (-30.0 30.0)
           (-30.0 30.0)
  end
  begin
     id 15 
     name upperneck
     direction 0.0498479 0.98191 -0.182667   
     length 1.68731   
     axis 0 0 0   XYZ
    dof rx ry rz
    limits (-20.0 45.0)
           (-30.0 30.0)
           (-30.0 30.0)
  end
  begin
     id 16
     name head
     direction 0.0230358 0.996257 -0.0833175  
     length 1.69785  
     axis 0 0 0   XYZ
    dof rx ry rz
    limits (-20.0 45.0)
           (-30.0 30.0)
           (-30.0 30.0)
  end
  begin
     id 17 
     name lclavicle
     direction 0.967963 0.201165 -0.150269  
     length 3.63976  
     axis 0 0 0   XYZ
    dof ry rz
    limits (-20.0 10.0)
           (0.0 20.0)
  end
  begin
     id 18 
     name lhumerus
     direction 1 -4.48954e-011 -2.92837e-028   
     length 5.32462   
     axis 180 -30 -90   XYZ
    dof rx ry rz
    limits (-60.0 90.0)
           (-90.0 90.0)
           (-90.0 90.0)
  end
  begin
     id 19
     name lradius
     direction 1 -4.48958e-011 -6.39511e-027   
     length 3.48402   
     axis 180 -30 -90   XYZ
    dof rx
    limits (-10.0 170.0)
  end
  begin
     id 20
     name lwrist
     direction 1 -4.48975e-011 -1.1413e-026   
     length 1.74201   
     axis 6.88575e-015 90 90   XYZ
    dof ry
    limits (-180.0 0.0)
 end
  begin
     id 21 
     name lhand
     direction 1 -4.48899e-011 -2.28192e-026   
     length 0.572476   
     axis 1.45643e-014 90 90   XYZ
    dof rx rz
    limits (-90.0 90.0)
           (-45.0 45.0)
  end
  begin
     id 22 
     name lfingers
     direction 1 -4.49155e-011 -4.5684e-026   
     length 0.461545   
     axis 2.91283e-014 90 90   XYZ
    dof rx
    limits (0.0 90.0)
  end
  begin
     id 23
     name lthumb
     direction 0.707107 -6.34943e-011 0.707107   
     length 0.662688   
     axis -90 45 -2.25915e-014   XYZ
    dof rx rz
    limits (-45.0 45.0)
           (-45.0 45.0)
  end
  begin
     id 24 
     name rclavicle
     direction -0.964103 0.264019 -0.0282629   
     length 3.54491  
     axis 0 0 0   XYZ 
    dof ry rz
    limits (-10.0 20.0)
           (-20.0 0.0)
  end
  begin
     id 25 
     name rhumerus
     direction -1 -4.48964e-011 -2.45032e-027  
     length 5.33589   
     axis 180 30 90   XYZ
    dof rx ry rz
    limits (-90.0 60.0)
           (-90.0 90.0)
           (-90.0 90.0)
  end
  begin
     id 26 
     name rradius
     direction -1 -4.48987e-011 -1.55093e-027   
     length 3.64134   
     axis 180 30 90   XYZ
    dof rx
    limits (-10.0 170.0)
  end
  begin
     id 27 
     name rwrist
     direction -1 -4.4897e-011 -1.14128e-026   
     length 1.82067   
     axis 6.88575e-015 -90 -90   XYZ
    dof ry
    limits (-180.0 0.0)
  end
  begin
     id 28
     name rhand
     direction -1 -4.49021e-011 -2.28301e-026   
     length 0.734811   
     axis 1.45643e-014 -90 -90   XYZ
    dof rx rz
    limits (-90.0 90.0)
           (-45.0 45.0)
  end
  begin
     id 29
     name rfingers
     direction -1 -4.48862e-011 -4.56319e-026   
     length 0.592424   
     axis 2.91283e-014 -90 -90   XYZ
    dof rx
    limits (0.0 90.0)
  end
  begin
     id 30
     name rthumb
     direction -0.707107 -6.34978e-011 0.707107   
     length 0.850605   
     axis -90 -45 2.25915e-014   XYZ
    dof rx rz
    limits (-45.0 45.0)
           (-45.0 45.0)
  end
:hierarchy
  begin
    root lhipjoint rhipjoint lowerback
    lhipjoint lfemur
    lfemur ltibia
    ltibia lfoot
    lfoot ltoes
    rhipjoint rfemur
    rfemur rtibia
    rtibia rfoot
    rfoot rtoes
    lowerback upperback
    upperback thorax
    thorax lowerneck lclavicle rclavicle
    lowerneck upperneck
    upperneck head
    lclavicle lhumerus
    lhumerus lradius
    lradius lwrist
    lwrist lhand lthumb
    lhand lfingers
    rclavicle rhumerus
    rhumerus rradius
    rradius rwrist
    rwrist rhand rthumb
    rhand rfingers
  end

#!OML:ASF F:\VICON\USERDATA\INSTALL\rory3\rory3.ASF
:FULLY-SPECIFIED
:DEGREES
171
root 1.70765 17.844 -1.62625 -1.04435 8.35911 0.702056
lowerback 1.01419 -0.15963 -3.05636
upperback -2.91014 -0.307529 -0.305662
thorax -3.55001 -0.070727 1.41013
lowerneck -33.688 -4.11216 -11.9508
upperneck 6.62911 -0.781152 2.73622
head 7.18591 -0.425612 2.66083
rclavicle -6.85807e-015 6.55989e-015
rhumerus 44.6637 -32.5158 -25.0764
rradius 42.2316
rwrist 0.211266
rhand -29.2723 0.0703741
rfingers 7.12502
rthumb -2.61468 -29.8933
lclavicle -6.85807e-015 6.55989e-015
lhumerus 44.0449 36.1966 18.7842
lradius 39.3071
lwrist 7.71029
lhand -16.4683 27.4106
lfingers 7.12502
lthumb 9.74838 57.1649
rfemur -5.09743 4.40329 7.80751
rtibia 43.0051
rfoot -9.47406 -7.0024
rtoes -5.6315
lfemur -3.21901 -0.421317 -22.0288
ltibia 22.2857
lfoot -14.5369 -4.3578
ltoes -15.1067
172
root 1.70479 17.8347 -1.58996 -1.08683 8.33617 0.735525
lowerback 1.12214 -0.196641 -3.02183
upperback -3.05686 -0.364168 -0.348658
thorax -3.76105 -0.0959584 1.3496
lowerneck -33.8602 -4.13288 -11.9175
upperneck 6.51564 -0.816594 2.84863
head 7.1715 -0.424005 2.68975
rclavicle -7.0817e-015 1.17283e-014
rhumerus 46.0032 -34.162 -25.303
rradius 42.5933
rwrist 0.217953
rhand -29.5904 0.138327
rfingers 7.12502
rthumb -2.92191 -29.8214
lclavicle -7.0817e-015 1.17283e-014
lhumerus 45.7028 37.8688 19.8877
lradius 40.2615
lwrist 8.57006
lhand -16.7449 27.2527
lfingers 7.12502
lthumb 9.4815 57.0194
rfemur -5.02101 4.25191 7.68307
rtibia 43.1733
rfoot -9.29249 -6.61383
rtoes -5.46076
lfemur -3.06815 -0.296618 -22.0247
ltibia 22.3463
lfoot -14.6596 -4.48695
ltoes -14.9124
173
root 1.70064 17.8265 -1.55626 -1.05579 8.30362 0.79215
lowerback 1.14945 -0.250241 -3.00833
upperback -3.16892 -0.439722 -0.384677
thorax -3.88978 -0.131531 1.30859
lowerneck -34.1804 -4.12732 -11.7264
upperneck 6.40706 -0.82639 2.7275
head 7.17408 -0.430734 2.61607
rclavicle 1.15544e-014 -4.57205e-015
rhumerus 47.4358 -35.7849 -25.7074
rradius 43.1123
rwrist 0.0335023
rhand -29.9729 0.193912
rfingers 7.12502
rthumb -3.29133 -29.7604
lclavicle 1.15544e-014 -4.57205e-015
lhumerus 47.227 39.5102 20.9062
lradius 41.4398
lwrist 9.53384
lhand -16.442 27.2871
lfingers 7.12502
lthumb 9.77373 57.0403
rfemur -5.04153 4.12328 7.53254
rtibia 43.3457
rfoot -9.00676 -6.19993
rtoes -5.74148
lfemur -3.01167 -0.201153 -22.0414
ltibia 22.429
lfoot -14.7821 -4.60149
ltoes -14.6824
174
root 1.69383 17.8189 -1.51954 -1.1196 8.23105 0.752604
lowerback 1.1724 -0.296049 -2.95998
upperback -3.22519 -0.5002 -0.351367
thorax -3.95851 -0.161019 1.31887
lowerneck -34.3387 -4.12429 -11.6552
upperneck 6.12776 -0.828966 2.70068
head 7.09641 -0.422302 2.59432
rclavicle 1.42131e-014 1.07344e-014
rhumerus 48.7445 -37.2622 -25.9107
rradius 43.7491
rwrist -0.159123
rhand -30.5392 -0.0429213
rfingers 7.12502
rthumb -3.83819 -29.9881
lclavicle 1.42131e-014 1.07344e-014
lhumerus 48.5134 41.0392 21.8092
lradius 42.83
lwrist 10.5757
lhand -16.7726 27.7171
lfingers 7.12502
lthumb 9.45479 57.485
rfemur -4.96665 4.08311 7.5279
rtibia 43.5068
rfoot -8.66963 -5.8847
rtoes -6.55495
lfemur -2.84582 -0.132791 -21.9545
ltibia 22.5238
lfoot -15.0297 -4.57179
ltoes -15.091
175
root 1.6827 17.8123 -1.48139 -1.305 8.10909 0.698557
lowerback 1.33744 -0.338985 -2.98587
upperback -3.26623 -0.562522 -0.270657
thorax -4.09117 -0.187498 1.4209
lowerneck -34.5271 -4.0696 -11.5727
upperneck 5.98164 -0.764191 2.66782
head 7.06445 -0.387165 2.5793
rclavicle -2.76808e-014 -1.2921e-014
rhumerus 49.9389 -38.5544 -25.9986
rradius 44.4571
rwrist -0.256582
rhand -31.2887 -0.399858
rfingers 7.12502
rthumb -4.56191 -30.3307
lclavicle -2.76808e-014 -1.2921e-014
lhumerus 49.6604 42.483 22.715
lradius 44.3758
lwrist 11.3189
lhand -15.7921 27.1244
lfingers 7.12502
lthumb 10.4007 56.8472
rfemur -4.7739 4.13218 7.564
rtibia 43.6928
rfoot -8.45136 -5.51709
rtoes -6.15609
lfemur -2.51399 0.00680265 -21.8302
ltibia 22.558
lfoot -15.2738 -4.52995
ltoes -15.4165
